<svg width="24" height="24" viewBox="0 0 24 24" fill="none" xmlns="http://www.w3.org/2000/svg">
<path d="M19.5092 13.2645C18.8548 12.571 17.79 12.571 17.1356 13.2645L16.145 14.3143C15.8787 14.5966 15.4452 14.5966 15.1788 14.3143C14.9125 14.032 14.9125 13.5726 15.1788 13.2903L16.8487 11.5205C17.1658 11.1846 17.3403 10.7379 17.3403 10.2628C17.3403 9.78762 17.1657 9.34092 16.8487 9.005C16.1943 8.31141 15.1295 8.31148 14.4751 9.005L12.2349 11.3792C12.2041 11.3581 12.1721 11.3386 12.1393 11.3208V11.2904V10.0304V10.0001C12.494 9.80801 12.737 9.41725 12.737 8.96605C12.737 8.51486 12.494 8.12409 12.1393 7.93196V6.68947H13.43L13.7601 5.13339H12.681L12.8895 3H10.3938L10.6024 5.13346H9.52327L9.8534 6.68954H11.1441V7.93204C10.7894 8.12416 10.5463 8.51493 10.5463 8.96612C10.5463 9.41732 10.7894 9.80808 11.1441 10.0002V10.0305V11.2905V11.3208C10.7894 11.5129 10.5463 11.9037 10.5463 12.3549C10.5463 12.4857 10.567 12.6113 10.6047 12.7287H10.174V13.7834H10.7191V15.2165C9.62249 15.621 8.83544 16.7259 8.83544 18.0259V19.9453H8V21H15.2834V19.9453H14.4479V18.0259C14.4479 16.7259 13.6608 15.621 12.5643 15.2165V13.7834H13.1094V12.7287H12.6787C12.7164 12.6114 12.7371 12.4857 12.7371 12.3549C12.7371 12.3496 12.7368 12.3443 12.7367 12.339L15.1788 9.75081C15.4453 9.4685 15.8787 9.4685 16.1451 9.75081C16.2741 9.88757 16.3452 10.0694 16.3452 10.2628C16.3452 10.4562 16.2741 10.638 16.1451 10.7748L14.4752 12.5446C13.8208 13.2381 13.8208 14.3666 14.4752 15.0601C15.1295 15.7537 16.1944 15.7536 16.8488 15.0601L17.8393 14.0103C18.1057 13.728 18.5392 13.728 18.8055 14.0103C19.0719 14.2926 19.0719 14.752 18.8056 15.0343L18.1668 15.7113L17.7767 15.2978L17.073 16.0436L17.4631 16.4571L16.7931 17.1671L17.4968 17.9129L18.1668 17.2028L18.5569 17.6162L19.2606 16.8704L18.8705 16.457L19.5092 15.78C20.1636 15.0865 20.1636 13.9581 19.5092 13.2645Z" fill="black" fill-opacity="0.4"/>
</svg>
