<svg width="24" height="15" viewBox="0 0 24 15" fill="none" xmlns="http://www.w3.org/2000/svg">
<path d="M23.3201 12.9968H22.758C22.0762 12.9968 22.1025 12.3469 22.1025 12.3469C22.1025 12.3469 22.0979 12.3484 22.0968 12.3484C21.7173 8.53238 19.2315 5.34413 15.816 3.9555C15.8062 3.95063 15.7995 3.94575 15.7897 3.94125C15.2358 3.699 15.2227 3.15638 15.2227 3.15638V1.69988C15.2227 0.761625 14.4626 0 13.5232 0H10.4771C9.53845 0 8.7772 0.761625 8.7772 1.69988V3.37275C8.76183 3.513 8.67895 3.74588 8.3167 3.89925C8.29345 3.90938 8.27583 3.91913 8.25708 3.92775C4.8127 5.29763 2.2972 8.49075 1.90533 12.3218L1.90083 12.3203C1.90083 12.3203 1.84458 12.9968 1.19808 12.9968H0.777328C0.643828 12.9998 0.111328 13.0466 0.111328 13.5956V14.0348C0.119203 14.223 0.200953 14.6711 0.817453 14.6711H23.1558C23.7667 14.6711 23.8728 14.2759 23.8886 14.0779V13.6309C23.8886 13.1029 23.5113 13.0099 23.3201 12.9968ZM13.9953 2.70488C13.992 2.84063 13.9402 3.342 13.3113 3.2835C13.2768 3.28013 13.254 3.28125 13.2307 3.28238C12.8265 3.2325 12.4185 3.19913 12 3.19913C11.5241 3.19913 11.0587 3.24525 10.5997 3.31013C10.5678 3.30863 10.5311 3.31013 10.4857 3.31575C9.98658 3.375 9.8992 3.06225 9.8872 2.90175V2.12737C9.8872 1.52887 10.3717 1.04363 10.9706 1.04363H12.9123C13.5108 1.04363 13.9957 1.52887 13.9957 2.12737V2.70488H13.9953ZM18.6435 12.9885H17.7851C17.346 12.9885 17.2342 12.7526 17.2087 12.5876C17.2087 12.5483 17.2068 12.4943 17.2046 12.4305C17.1753 11.5688 16.9548 8.6115 15.3198 6.27225L15.3277 6.27187L15.1387 5.95163C15.1185 5.83388 15.1256 5.6625 15.4143 5.90288C16.8315 7.12388 18.9262 9.44925 19.0466 12.6236C19.0387 12.7613 18.9776 12.9885 18.6435 12.9885Z" fill="black"/>
</svg>
