<svg width="22" height="18" viewBox="0 0 22 18" fill="none" xmlns="http://www.w3.org/2000/svg">
<path d="M16.7271 16.3636C16.7271 16.8155 16.8873 17.2011 17.2067 17.5204C17.526 17.8401 17.9118 18 18.3639 18C18.8153 18 19.2011 17.8401 19.5205 17.5204C19.8401 17.2011 20.0001 16.8155 20.0001 16.3636C20.0001 15.9118 19.8403 15.5262 19.5205 15.2066C19.2011 14.8872 18.8153 14.7273 18.3639 14.7273C17.9118 14.7273 17.526 14.8872 17.2067 15.2066C16.8873 15.5262 16.7271 15.9118 16.7271 16.3636Z" fill="black" fill-opacity="0.4"/>
<path d="M21.3934 1.87913C21.2314 1.71717 21.0397 1.63617 20.8181 1.63617H5.46461C5.45597 1.57657 5.4368 1.46799 5.40698 1.31033C5.37716 1.15259 5.35379 1.02695 5.33673 0.933094C5.31958 0.839646 5.28779 0.72663 5.24082 0.59454C5.19394 0.46236 5.13855 0.357852 5.07465 0.28133C5.01085 0.204404 4.92564 0.138538 4.81907 0.0829706C4.71259 0.0277614 4.59107 0 4.45477 0H1.1821C0.960371 0 0.768638 0.0811347 0.606726 0.242867C0.44477 0.404778 0.36377 0.596645 0.36377 0.818198C0.36377 1.03975 0.44477 1.23153 0.606726 1.39344C0.768772 1.5554 0.96055 1.63631 1.1821 1.63631H3.78975L6.05239 12.1577C6.03546 12.1917 5.94811 12.3535 5.79036 12.6434C5.6327 12.9333 5.50701 13.1868 5.41334 13.4041C5.31962 13.6216 5.27274 13.7899 5.27274 13.9091C5.27274 14.1306 5.35374 14.3225 5.51561 14.4847C5.67775 14.6461 5.86943 14.7274 6.09103 14.7274H6.90919H18.3637H19.1813C19.4029 14.7274 19.5947 14.6462 19.7566 14.4847C19.9187 14.3225 19.9996 14.1307 19.9996 13.9091C19.9996 13.6875 19.9187 13.4957 19.7566 13.3339C19.5947 13.172 19.4029 13.0908 19.1813 13.0908H7.42035C7.62498 12.6816 7.72725 12.4092 7.72725 12.2728C7.72725 12.1874 7.7166 12.0935 7.69524 11.9915C7.67388 11.8895 7.64836 11.7764 7.61854 11.6526C7.58867 11.5294 7.56959 11.4377 7.56109 11.378L20.9079 9.81837C21.1207 9.79263 21.2956 9.70133 21.4319 9.54345C21.5683 9.38593 21.6363 9.20485 21.6363 9.00018V2.45464C21.6362 2.23309 21.5555 2.04131 21.3934 1.87913Z" fill="black" fill-opacity="0.4"/>
<path d="M5.27246 16.3636C5.27246 16.8155 5.43218 17.2011 5.75184 17.5204C6.07159 17.8401 6.45707 18 6.9089 18C7.36047 18 7.74618 17.8401 8.0657 17.5204C8.38536 17.2011 8.54526 16.8155 8.54526 16.3636C8.54526 15.9118 8.3855 15.5262 8.0657 15.2066C7.74613 14.8872 7.36047 14.7273 6.9089 14.7273C6.45711 14.7273 6.07141 14.8872 5.75184 15.2066C5.43236 15.5262 5.27246 15.9118 5.27246 16.3636Z" fill="black" fill-opacity="0.4"/>
</svg>
