<svg width="24" height="24" viewBox="0 0 24 24" fill="none" xmlns="http://www.w3.org/2000/svg">
<path d="M23.3201 18.9968H22.758C22.0762 18.9968 22.1025 18.3469 22.1025 18.3469C22.1025 18.3469 22.0979 18.3484 22.0968 18.3484C21.7173 14.5324 19.2315 11.3441 15.816 9.9555C15.8062 9.95063 15.7995 9.94575 15.7897 9.94125C15.2358 9.699 15.2227 9.15638 15.2227 9.15638V7.69988C15.2227 6.76163 14.4626 6 13.5232 6H10.4771C9.53845 6 8.7772 6.76163 8.7772 7.69988V9.37275C8.76183 9.513 8.67895 9.74588 8.3167 9.89925C8.29345 9.90938 8.27583 9.91913 8.25708 9.92775C4.8127 11.2976 2.2972 14.4908 1.90533 18.3218L1.90083 18.3203C1.90083 18.3203 1.84458 18.9968 1.19808 18.9968H0.777328C0.643828 18.9998 0.111328 19.0466 0.111328 19.5956V20.0348C0.119203 20.223 0.200953 20.6711 0.817453 20.6711H23.1558C23.7667 20.6711 23.8728 20.2759 23.8886 20.0779V19.6309C23.8886 19.1029 23.5113 19.0099 23.3201 18.9968ZM13.9953 8.70488C13.992 8.84063 13.9402 9.342 13.3113 9.2835C13.2768 9.28013 13.254 9.28125 13.2307 9.28238C12.8265 9.2325 12.4185 9.19913 12 9.19913C11.5241 9.19913 11.0587 9.24525 10.5997 9.31013C10.5678 9.30863 10.5311 9.31013 10.4857 9.31575C9.98658 9.375 9.8992 9.06225 9.8872 8.90175V8.12737C9.8872 7.52887 10.3717 7.04363 10.9706 7.04363H12.9123C13.5108 7.04363 13.9957 7.52887 13.9957 8.12737V8.70488H13.9953ZM18.6435 18.9885H17.7851C17.346 18.9885 17.2342 18.7526 17.2087 18.5876C17.2087 18.5483 17.2068 18.4943 17.2046 18.4305C17.1753 17.5688 16.9548 14.6115 15.3198 12.2723L15.3277 12.2719L15.1387 11.9516C15.1185 11.8339 15.1256 11.6625 15.4143 11.9029C16.8315 13.1239 18.9262 15.4493 19.0466 18.6236C19.0387 18.7613 18.9776 18.9885 18.6435 18.9885Z" fill="black" fill-opacity="0.4"/>
</svg>
