<svg width="24" height="24" viewBox="0 0 24 24" fill="none" xmlns="http://www.w3.org/2000/svg">
<path d="M17.7271 19.3637C17.7271 19.8156 17.8873 20.2011 18.2067 20.5205C18.526 20.8401 18.9118 21.0001 19.3639 21.0001C19.8153 21.0001 20.2011 20.8401 20.5205 20.5205C20.8401 20.2011 21.0001 19.8156 21.0001 19.3637C21.0001 18.9118 20.8403 18.5263 20.5205 18.2066C20.2011 17.8873 19.8153 17.7274 19.3639 17.7274C18.9118 17.7274 18.526 17.8873 18.2067 18.2066C17.8873 18.5263 17.7271 18.9118 17.7271 19.3637Z" fill="black" fill-opacity="0.4"/>
<path d="M22.3934 4.87913C22.2314 4.71717 22.0397 4.63617 21.8181 4.63617H6.46461C6.45597 4.57657 6.4368 4.46799 6.40698 4.31033C6.37716 4.15259 6.35379 4.02695 6.33673 3.93309C6.31958 3.83965 6.28779 3.72663 6.24082 3.59454C6.19394 3.46236 6.13855 3.35785 6.07465 3.28133C6.01085 3.2044 5.92564 3.13854 5.81907 3.08297C5.71259 3.02776 5.59107 3 5.45477 3H2.1821C1.96037 3 1.76864 3.08113 1.60673 3.24287C1.44477 3.40478 1.36377 3.59664 1.36377 3.8182C1.36377 4.03975 1.44477 4.23153 1.60673 4.39344C1.76877 4.5554 1.96055 4.63631 2.1821 4.63631H4.78975L7.05239 15.1577C7.03546 15.1917 6.94811 15.3535 6.79036 15.6434C6.6327 15.9333 6.50701 16.1868 6.41334 16.4041C6.31962 16.6216 6.27274 16.7899 6.27274 16.9091C6.27274 17.1306 6.35374 17.3225 6.51561 17.4847C6.67775 17.6461 6.86943 17.7274 7.09103 17.7274H7.90919H19.3637H20.1813C20.4029 17.7274 20.5947 17.6462 20.7566 17.4847C20.9187 17.3225 20.9996 17.1307 20.9996 16.9091C20.9996 16.6875 20.9187 16.4957 20.7566 16.3339C20.5947 16.172 20.4029 16.0908 20.1813 16.0908H8.42035C8.62498 15.6816 8.72725 15.4092 8.72725 15.2728C8.72725 15.1874 8.7166 15.0935 8.69524 14.9915C8.67388 14.8895 8.64836 14.7764 8.61854 14.6526C8.58867 14.5294 8.56959 14.4377 8.56109 14.378L21.9079 12.8184C22.1207 12.7926 22.2956 12.7013 22.4319 12.5434C22.5683 12.3859 22.6363 12.2049 22.6363 12.0002V5.45464C22.6362 5.23309 22.5555 5.04131 22.3934 4.87913Z" fill="black" fill-opacity="0.4"/>
<path d="M6.27271 19.3637C6.27271 19.8156 6.43242 20.2011 6.75208 20.5205C7.07183 20.8401 7.45731 21.0001 7.90915 21.0001C8.36072 21.0001 8.74642 20.8401 9.06595 20.5205C9.38561 20.2011 9.5455 19.8156 9.5455 19.3637C9.5455 18.9118 9.38574 18.5263 9.06595 18.2066C8.74638 17.8873 8.36072 17.7274 7.90915 17.7274C7.45735 17.7274 7.07165 17.8873 6.75208 18.2066C6.4326 18.5263 6.27271 18.9118 6.27271 19.3637Z" fill="black" fill-opacity="0.4"/>
</svg>
